<?xml version="1.0" encoding="UTF-8"?>
<svg id="Layer_1" data-name="Layer 1" xmlns="http://www.w3.org/2000/svg" viewBox="0 0 1000 1000">
  <defs>
    <style>
      .cls-1 {
        fill: #0d0d1a;
      }

      .cls-2 {
        fill: none;
      }

      .cls-3 {
        fill: #ff50de;
      }
    </style>
  </defs>
  <path class="cls-3" d="M604.55,340.36l133-230.36,122.37,59.06-88.67,127.75c-7.46,10.75-2.81,25.66,9.45,30.25l147.37,55.21-82.81,143.43-226.02-130.49c-19.2-11.09-25.78-35.64-14.7-54.85Z"/>
  <path class="cls-1" d="M817.66,573.52l-82.81,143.42-121.13-99.73c-10.09-8.31-25.3-4.91-30.9,6.9l-115.19,242.93c-14.57,30.72-58.33,30.56-72.68-.26l-17.45-37.49-.15.07L71.92,174.37l136.46-63.64,219.96,471.69c6.86,14.72,27.46,15.62,35.58,1.55l72.88-126.24c11.09-19.2,35.64-25.78,54.85-14.7l226.01,130.49Z"/>
  <line class="cls-2" x1="594" y1="600.54" x2="593.85" y2="600.86"/>
</svg>